<svg width="44" height="20" viewBox="0 0 44 20" fill="none" xmlns="http://www.w3.org/2000/svg">
<g clip-path="url(#clip0_368_924)">
<path d="M0 2.59253H20V7.5308H0V2.59253Z" fill="#FF9933"/>
<path d="M0 7.53079H20V12.4691H0V7.53079Z" fill="white"/>
<path d="M0 12.4691H20V17.4074H0V12.4691Z" fill="#128807"/>
<path d="M10 11.9752C11.1046 11.9752 12 11.0909 12 9.99994C12 8.909 11.1046 8.02463 10 8.02463C8.89543 8.02463 8 8.909 8 9.99994C8 11.0909 8.89543 11.9752 10 11.9752Z" fill="#000088"/>
<path d="M10 11.7283C10.9665 11.7283 11.75 10.9545 11.75 9.99991C11.75 9.04534 10.9665 8.27151 10 8.27151C9.0335 8.27151 8.25 9.04534 8.25 9.99991C8.25 10.9545 9.0335 11.7283 10 11.7283Z" fill="white"/>
<path d="M10.0004 10.3456C10.1937 10.3456 10.3504 10.1908 10.3504 9.99991C10.3504 9.809 10.1937 9.65424 10.0004 9.65424C9.80709 9.65424 9.65039 9.809 9.65039 9.99991C9.65039 10.1908 9.80709 10.3456 10.0004 10.3456Z" fill="#000088"/>
<path d="M11.7239 10.3143C11.7732 10.3207 11.8184 10.2864 11.8249 10.2378C11.8314 10.1891 11.7967 10.1444 11.7474 10.138C11.6982 10.1316 11.6529 10.1659 11.6465 10.2146C11.64 10.2632 11.6747 10.3079 11.7239 10.3143Z" fill="#000088"/>
<path d="M10.0004 11.7283L10.0604 10.6913L10.0004 10.1974L9.94043 10.6913L10.0004 11.7283Z" fill="#000088"/>
<path d="M11.5821 10.7443C11.6279 10.7629 11.6805 10.7412 11.6997 10.6958C11.7188 10.6503 11.6971 10.5983 11.6513 10.5796C11.6055 10.561 11.5529 10.5827 11.5337 10.6281C11.5146 10.6736 11.5362 10.7256 11.5821 10.7443Z" fill="#000088"/>
<path d="M9.54694 11.6696L9.87683 10.6828L9.94907 10.1906L9.76188 10.6525L9.54694 11.6696Z" fill="#000088"/>
<path d="M11.3333 11.1234C11.3726 11.1532 11.4291 11.1456 11.4595 11.1066C11.4899 11.0675 11.4826 11.0117 11.4433 10.982C11.404 10.9522 11.3475 10.9597 11.3171 10.9988C11.2867 11.0378 11.294 11.0936 11.3333 11.1234Z" fill="#000088"/>
<path d="M9.12463 11.497L9.70171 10.628L9.90027 10.1708L9.59843 10.5692L9.12463 11.497Z" fill="#000088"/>
<path d="M10.9935 11.4259C11.0237 11.4647 11.0802 11.4719 11.1197 11.4419C11.1592 11.412 11.1668 11.3562 11.1366 11.3173C11.1065 11.2784 11.05 11.2713 11.0105 11.3012C10.9709 11.3312 10.9633 11.387 10.9935 11.4259Z" fill="#000088"/>
<path d="M8.76218 11.2223L9.54715 10.5304L9.85862 10.1394L9.46272 10.447L8.76218 11.2223Z" fill="#000088"/>
<path d="M10.5875 11.6308C10.6067 11.6763 10.6593 11.698 10.7051 11.6794C10.7509 11.6607 10.7725 11.6087 10.7534 11.5632C10.7343 11.5178 10.6816 11.496 10.6358 11.5147C10.59 11.5334 10.5684 11.5854 10.5875 11.6308Z" fill="#000088"/>
<path d="M8.48515 10.8638L9.42441 10.3974L9.82708 10.099L9.364 10.2941L8.48515 10.8638Z" fill="#000088"/>
<path d="M10.1396 11.7251C10.1462 11.7739 10.1914 11.8083 10.2406 11.802C10.2897 11.7957 10.3242 11.7511 10.3176 11.7023C10.311 11.6535 10.2658 11.6191 10.2166 11.6253C10.1675 11.6316 10.133 11.6763 10.1396 11.7251Z" fill="#000088"/>
<path d="M8.31083 10.4468L9.34052 10.2368L9.80768 10.0516L9.30913 10.1213L8.31083 10.4468Z" fill="#000088"/>
<path d="M9.68262 11.7017C9.67625 11.7502 9.71114 11.7949 9.76054 11.8014C9.80994 11.8079 9.85515 11.7739 9.86152 11.7253C9.86788 11.6768 9.833 11.6321 9.7836 11.6256C9.7342 11.6191 9.68899 11.6531 9.68262 11.7017Z" fill="#000088"/>
<path d="M8.25127 9.99794L9.30121 10.0579L9.80094 10.0019L9.30089 9.94333L8.25127 9.99794Z" fill="#000088"/>
<path d="M9.24741 11.5624C9.22844 11.6077 9.25033 11.6597 9.2963 11.6786C9.34228 11.6974 9.39492 11.676 9.41389 11.6306C9.43286 11.5853 9.41097 11.5333 9.365 11.5145C9.31903 11.4957 9.26638 11.5171 9.24741 11.5624Z" fill="#000088"/>
<path d="M8.31045 9.55235L9.30933 9.87808L9.8078 9.94904L9.34023 9.76407L8.31045 9.55235Z" fill="#000088"/>
<path d="M8.86315 11.3169C8.83279 11.3559 8.84004 11.4117 8.87937 11.4415C8.91869 11.4713 8.97519 11.4638 9.00556 11.4247C9.03593 11.3857 9.02867 11.3299 8.98934 11.3001C8.95002 11.2703 8.89352 11.2778 8.86315 11.3169Z" fill="#000088"/>
<path d="M8.48431 9.13608L9.36315 9.7058L9.82624 9.90086L9.42357 9.60251L8.48431 9.13608Z" fill="#000088"/>
<path d="M8.55653 10.9813C8.51698 11.0113 8.50936 11.0671 8.53951 11.1059C8.56966 11.1448 8.62616 11.152 8.6657 11.122C8.70525 11.092 8.71286 11.0362 8.68272 10.9973C8.65257 10.9585 8.59607 10.9513 8.55653 10.9813Z" fill="#000088"/>
<path d="M8.76317 8.77801L9.46263 9.55313L9.8587 9.86001L9.54797 9.46884L8.76317 8.77801Z" fill="#000088"/>
<path d="M8.34812 10.5788C8.30211 10.5977 8.28017 10.6497 8.29911 10.6949C8.31805 10.7402 8.37069 10.7616 8.4167 10.7428C8.46271 10.7239 8.48465 10.6719 8.46571 10.6266C8.44677 10.5813 8.39412 10.5599 8.34812 10.5788Z" fill="#000088"/>
<path d="M9.12542 8.50324L9.59791 9.43092L9.89995 9.82872L9.7023 9.37138L9.12542 8.50324Z" fill="#000088"/>
<path d="M8.25364 10.1369C8.20427 10.1434 8.16945 10.188 8.17585 10.2366C8.18226 10.2852 8.22746 10.3194 8.27683 10.3129C8.32619 10.3064 8.36102 10.2617 8.35462 10.2131C8.34821 10.1645 8.303 10.1304 8.25364 10.1369Z" fill="#000088"/>
<path d="M9.54805 8.33055L9.76105 9.34755L9.94854 9.80903L9.87765 9.31665L9.54805 8.33055Z" fill="#000088"/>
<path d="M8.27769 9.68531C8.22853 9.67902 8.18332 9.71347 8.17672 9.76226C8.17011 9.81105 8.2046 9.8557 8.25376 9.86199C8.30292 9.86828 8.34813 9.83383 8.35474 9.78504C8.36135 9.73626 8.32685 9.6916 8.27769 9.68531Z" fill="#000088"/>
<path d="M10.0028 8.27164L9.94204 9.30862L9.99868 9.80219L10.058 9.30831L10.0028 8.27164Z" fill="#000088"/>
<path d="M8.41891 9.25557C8.37309 9.23688 8.32044 9.25858 8.30132 9.30404C8.2822 9.34949 8.30384 9.40149 8.34965 9.42017C8.39547 9.43886 8.44812 9.41716 8.46725 9.37171C8.48637 9.32625 8.46473 9.27425 8.41891 9.25557Z" fill="#000088"/>
<path d="M10.454 8.33023L10.1242 9.31697L10.0519 9.80925L10.2391 9.34733L10.454 8.33023Z" fill="#000088"/>
<path d="M8.6667 8.87649C8.62738 8.84671 8.57088 8.85423 8.54051 8.89329C8.51014 8.93234 8.5174 8.98814 8.55673 9.01792C8.59605 9.0477 8.65255 9.04018 8.68292 9.00112C8.71329 8.96207 8.70603 8.90627 8.6667 8.87649Z" fill="#000088"/>
<path d="M10.8754 8.50289L10.2983 9.37184L10.0997 9.82906L10.4016 9.43069L10.8754 8.50289Z" fill="#000088"/>
<path d="M9.0056 8.57396C8.97545 8.53512 8.91895 8.52795 8.87941 8.55794C8.83986 8.58793 8.83225 8.64373 8.8624 8.68257C8.89255 8.72141 8.94905 8.72859 8.98859 8.69859C9.02813 8.6686 9.03575 8.6128 9.0056 8.57396Z" fill="#000088"/>
<path d="M11.2369 8.77751L10.452 9.46946L10.1404 9.86046L10.5363 9.55279L11.2369 8.77751Z" fill="#000088"/>
<path d="M9.41344 8.36901C9.3943 8.32354 9.34166 8.30181 9.29585 8.32048C9.25005 8.33915 9.22843 8.39115 9.24757 8.43662C9.26671 8.48209 9.31936 8.50382 9.36516 8.48515C9.41097 8.46648 9.43258 8.41448 9.41344 8.36901Z" fill="#000088"/>
<path d="M11.5158 9.13606L10.5766 9.60249L10.1739 9.90084L10.637 9.70578L11.5158 9.13606Z" fill="#000088"/>
<path d="M9.86138 8.27481C9.85477 8.22602 9.80956 8.19156 9.7604 8.19785C9.71124 8.20414 9.67674 8.24879 9.68335 8.29758C9.68996 8.34637 9.73517 8.38083 9.78433 8.37454C9.83349 8.36825 9.86799 8.32359 9.86138 8.27481Z" fill="#000088"/>
<path d="M11.6901 9.55307L10.6605 9.7631L10.1933 9.94832L10.6918 9.87854L11.6901 9.55307Z" fill="#000088"/>
<path d="M10.3194 8.29819C10.3257 8.24965 10.2908 8.205 10.2414 8.19846C10.192 8.19192 10.1468 8.22597 10.1404 8.27451C10.1341 8.32305 10.169 8.3677 10.2184 8.37424C10.2678 8.38078 10.313 8.34673 10.3194 8.29819Z" fill="#000088"/>
<path d="M11.7506 10.0022L10.7007 9.94212L10.201 9.9977L10.7011 10.0562L11.7506 10.0022Z" fill="#000088"/>
<path d="M10.7546 8.43743C10.7735 8.39214 10.7516 8.34015 10.7056 8.32129C10.6596 8.30243 10.607 8.32386 10.588 8.36915C10.5691 8.41443 10.591 8.46643 10.637 8.48528C10.683 8.50414 10.7356 8.48272 10.7546 8.43743Z" fill="#000088"/>
<path d="M11.6915 10.4476L10.6926 10.1218L10.1941 10.0507L10.6617 10.2357L11.6915 10.4476Z" fill="#000088"/>
<path d="M11.1391 8.68326C11.1693 8.64437 11.1618 8.58857 11.1223 8.55863C11.0828 8.52869 11.0263 8.53595 10.9961 8.57484C10.9659 8.61373 10.9734 8.66953 11.0129 8.69947C11.0524 8.72941 11.1089 8.72215 11.1391 8.68326Z" fill="#000088"/>
<path d="M11.517 10.8643L10.6374 10.2944L10.1744 10.0985L10.5776 10.3967L11.517 10.8643Z" fill="#000088"/>
<path d="M11.4448 9.01887C11.4841 8.98904 11.4915 8.93324 11.4612 8.89423C11.4308 8.85523 11.3744 8.8478 11.335 8.87763C11.2956 8.90746 11.2882 8.96326 11.3186 9.00226C11.3489 9.04126 11.4054 9.0487 11.4448 9.01887Z" fill="#000088"/>
<path d="M11.2382 11.2222L10.5378 10.447L10.1419 10.1395L10.4532 10.5305L11.2382 11.2222Z" fill="#000088"/>
<path d="M11.6531 9.42129C11.699 9.40255 11.7207 9.35055 11.7016 9.30515C11.6825 9.25974 11.6299 9.23812 11.584 9.25685C11.5382 9.27558 11.5164 9.32758 11.5355 9.37299C11.5546 9.4184 11.6072 9.44002 11.6531 9.42129Z" fill="#000088"/>
<path d="M10.8769 11.4969L10.4035 10.5691L10.1016 10.1709L10.2999 10.6282L10.8769 11.4969Z" fill="#000088"/>
<path d="M11.7476 9.86321C11.7968 9.85686 11.8314 9.81221 11.8249 9.76348C11.8183 9.71476 11.7731 9.68041 11.7239 9.68677C11.6747 9.69312 11.6401 9.73777 11.6466 9.7865C11.6532 9.83522 11.6984 9.86957 11.7476 9.86321Z" fill="#000088"/>
<path d="M10.4535 11.6695L10.2392 10.6524L10.0519 10.1907L10.1237 10.683L10.4535 11.6695Z" fill="#000088"/>
</g>
<path d="M34.0003 12.3125C33.9309 12.3125 33.858 12.2986 33.7816 12.2708C33.7052 12.2431 33.6392 12.1945 33.5837 12.125L29.6253 8.18751C29.5281 8.09029 29.4795 7.97223 29.4795 7.83334C29.4795 7.69445 29.5281 7.5764 29.6253 7.47918C29.7364 7.38195 29.851 7.33334 29.9691 7.33334C30.0871 7.33334 30.1948 7.38195 30.292 7.47918L34.0003 11.1875L37.7087 7.47918C37.8059 7.38195 37.917 7.33334 38.042 7.33334C38.167 7.33334 38.2781 7.38195 38.3753 7.47918C38.4725 7.5764 38.5212 7.69098 38.5212 7.82293C38.5212 7.95487 38.4725 8.06945 38.3753 8.16668L34.417 12.125C34.3614 12.1945 34.2989 12.2431 34.2295 12.2708C34.16 12.2986 34.0837 12.3125 34.0003 12.3125Z" fill="#465671"/>
<defs>
<clipPath id="clip0_368_924">
<rect y="2.59253" width="20" height="14.8148" rx="1" fill="white"/>
</clipPath>
</defs>
</svg>
