<svg width="16" height="17" viewBox="0 0 16 17" fill="none" xmlns="http://www.w3.org/2000/svg">
<path d="M8.04183 12.4584C8.18072 12.4584 8.2953 12.4132 8.38558 12.323C8.47586 12.2327 8.521 12.1181 8.521 11.9792V8.12504C8.521 8.00004 8.47586 7.8924 8.38558 7.80212C8.2953 7.71185 8.18072 7.66671 8.04183 7.66671C7.90294 7.66671 7.79183 7.71185 7.7085 7.80212C7.62516 7.8924 7.5835 8.00698 7.5835 8.14587V12C7.5835 12.125 7.62863 12.2327 7.71891 12.323C7.80919 12.4132 7.91683 12.4584 8.04183 12.4584ZM8.00016 6.33337C8.15294 6.33337 8.28489 6.28129 8.396 6.17712C8.50711 6.07296 8.56266 5.93754 8.56266 5.77087C8.56266 5.6181 8.50711 5.48615 8.396 5.37504C8.28489 5.26393 8.15294 5.20837 8.00016 5.20837C7.8335 5.20837 7.69808 5.26393 7.59391 5.37504C7.48975 5.48615 7.43766 5.6181 7.43766 5.77087C7.43766 5.93754 7.49322 6.07296 7.60433 6.17712C7.71544 6.28129 7.84738 6.33337 8.00016 6.33337ZM8.00016 16.4167C6.88905 16.4167 5.85086 16.2153 4.88558 15.8125C3.9203 15.4098 3.08002 14.8507 2.36475 14.1355C1.64947 13.4202 1.09044 12.5799 0.687663 11.6146C0.284885 10.6493 0.0834961 9.61115 0.0834961 8.50004C0.0834961 7.38893 0.284885 6.35421 0.687663 5.39587C1.09044 4.43754 1.64947 3.60073 2.36475 2.88546C3.08002 2.17018 3.9203 1.60768 4.88558 1.19796C5.85086 0.788235 6.88905 0.583374 8.00016 0.583374C9.11127 0.583374 10.146 0.788235 11.1043 1.19796C12.0627 1.60768 12.8995 2.17018 13.6147 2.88546C14.33 3.60073 14.8925 4.43754 15.3022 5.39587C15.712 6.35421 15.9168 7.38893 15.9168 8.50004C15.9168 9.61115 15.712 10.6493 15.3022 11.6146C14.8925 12.5799 14.33 13.4202 13.6147 14.1355C12.8995 14.8507 12.0627 15.4098 11.1043 15.8125C10.146 16.2153 9.11127 16.4167 8.00016 16.4167Z" fill="#F84912"/>
</svg>
