<svg width="20" height="21" viewBox="0 0 20 21" fill="none" xmlns="http://www.w3.org/2000/svg">
<path d="M4.12484 17.5833C3.7915 17.5833 3.50678 17.4652 3.27067 17.2291C3.03456 16.993 2.9165 16.7083 2.9165 16.375V4.62496C2.9165 4.29163 3.03456 4.0069 3.27067 3.77079C3.50678 3.53468 3.7915 3.41663 4.12484 3.41663H8.89567C9.02067 3.41663 9.12831 3.46176 9.21859 3.55204C9.30887 3.64232 9.354 3.7569 9.354 3.89579C9.354 4.03468 9.30887 4.14579 9.21859 4.22913C9.12831 4.31246 9.02067 4.35413 8.89567 4.35413H4.12484C4.05539 4.35413 3.99289 4.3819 3.93734 4.43746C3.88178 4.49301 3.854 4.55551 3.854 4.62496V16.375C3.854 16.4444 3.88178 16.5069 3.93734 16.5625C3.99289 16.618 4.05539 16.6458 4.12484 16.6458H15.8748C15.9443 16.6458 16.0068 16.618 16.0623 16.5625C16.1179 16.5069 16.1457 16.4444 16.1457 16.375V11.6041C16.1457 11.4791 16.1908 11.3715 16.2811 11.2812C16.3714 11.1909 16.479 11.1458 16.604 11.1458C16.7429 11.1458 16.8575 11.1909 16.9478 11.2812C17.038 11.3715 17.0832 11.4791 17.0832 11.6041V16.375C17.0832 16.7083 16.9651 16.993 16.729 17.2291C16.4929 17.4652 16.2082 17.5833 15.8748 17.5833H4.12484ZM7.68734 12.8125C7.59012 12.7291 7.53803 12.625 7.53109 12.5C7.52414 12.375 7.56928 12.2638 7.6665 12.1666L15.479 4.35413H11.5207C11.3818 4.35413 11.2672 4.30899 11.1769 4.21871C11.0866 4.12843 11.0415 4.02079 11.0415 3.89579C11.0415 3.7569 11.0866 3.64232 11.1769 3.55204C11.2672 3.46176 11.3818 3.41663 11.5207 3.41663H16.479C16.6596 3.41663 16.8054 3.47218 16.9165 3.58329C17.0276 3.6944 17.0832 3.84024 17.0832 4.02079V8.97913C17.0832 9.11802 17.038 9.2326 16.9478 9.32288C16.8575 9.41315 16.7429 9.45829 16.604 9.45829C16.4651 9.45829 16.354 9.41315 16.2707 9.32288C16.1873 9.2326 16.1457 9.11802 16.1457 8.97913V5.04163L8.33317 12.8541C8.24984 12.9375 8.1422 12.9757 8.01025 12.9687C7.87831 12.9618 7.77067 12.9097 7.68734 12.8125Z" fill="#465671"/>
</svg>
