<svg width="16" height="17" viewBox="0 0 16 17" fill="none" xmlns="http://www.w3.org/2000/svg">
<path d="M6.771 10.5834L4.646 8.45837C4.56266 8.36115 4.45155 8.31254 4.31266 8.31254C4.17377 8.31254 4.05572 8.36115 3.9585 8.45837C3.84738 8.56948 3.79183 8.69448 3.79183 8.83337C3.79183 8.97226 3.84044 9.09032 3.93766 9.18754L6.35433 11.5834C6.46544 11.7084 6.60433 11.7709 6.771 11.7709C6.93766 11.7709 7.07655 11.7084 7.18766 11.5834L12.0418 6.75004C12.1391 6.65282 12.1877 6.53476 12.1877 6.39587C12.1877 6.25699 12.1321 6.13893 12.021 6.04171C11.9238 5.94449 11.8057 5.89587 11.6668 5.89587C11.5279 5.89587 11.4029 5.94449 11.2918 6.04171L6.771 10.5834ZM8.00016 16.4167C6.88905 16.4167 5.85086 16.2153 4.88558 15.8125C3.9203 15.4098 3.08002 14.8507 2.36475 14.1355C1.64947 13.4202 1.09044 12.5799 0.687663 11.6146C0.284885 10.6493 0.0834961 9.61115 0.0834961 8.50004C0.0834961 7.40282 0.284885 6.37157 0.687663 5.40629C1.09044 4.44101 1.64947 3.60073 2.36475 2.88546C3.08002 2.17018 3.9203 1.60768 4.88558 1.19796C5.85086 0.788235 6.88905 0.583374 8.00016 0.583374C9.09738 0.583374 10.1286 0.788235 11.0939 1.19796C12.0592 1.60768 12.8995 2.17018 13.6147 2.88546C14.33 3.60073 14.8925 4.43754 15.3022 5.39587C15.712 6.35421 15.9168 7.38893 15.9168 8.50004C15.9168 9.61115 15.712 10.6493 15.3022 11.6146C14.8925 12.5799 14.33 13.4202 13.6147 14.1355C12.8995 14.8507 12.0627 15.4098 11.1043 15.8125C10.146 16.2153 9.11127 16.4167 8.00016 16.4167Z" fill="#57BA5D"/>
</svg>
