<svg width="20" height="20" viewBox="0 0 20 20" fill="none" xmlns="http://www.w3.org/2000/svg">
<path d="M10 13.125C9.86111 13.125 9.74653 13.0798 9.65625 12.9896C9.56597 12.8993 9.52083 12.7847 9.52083 12.6458V5.43748L7.5625 7.39581C7.46528 7.49304 7.35417 7.53817 7.22917 7.53123C7.10417 7.52429 6.99306 7.47915 6.89583 7.39581C6.79861 7.29859 6.75 7.18401 6.75 7.05206C6.75 6.92012 6.79861 6.80554 6.89583 6.70831L9.58333 4.02081C9.63889 3.96526 9.70139 3.92012 9.77083 3.8854C9.84028 3.85067 9.91667 3.83331 10 3.83331C10.0833 3.83331 10.1597 3.85067 10.2292 3.8854C10.2986 3.92012 10.3611 3.96526 10.4167 4.02081L13.125 6.72915C13.2083 6.81248 13.2535 6.92012 13.2604 7.05206C13.2674 7.18401 13.2222 7.29859 13.125 7.39581C13.0278 7.47915 12.9132 7.52081 12.7812 7.52081C12.6493 7.52081 12.5347 7.4722 12.4375 7.37498L10.4792 5.43748V12.6458C10.4792 12.7847 10.434 12.8993 10.3438 12.9896C10.2535 13.0798 10.1389 13.125 10 13.125ZM4.95833 16.25C4.625 16.25 4.34028 16.1319 4.10417 15.8958C3.86806 15.6597 3.75 15.375 3.75 15.0416V12.9166C3.75 12.7916 3.79514 12.684 3.88542 12.5937C3.97569 12.5035 4.09028 12.4583 4.22917 12.4583C4.36806 12.4583 4.47917 12.5035 4.5625 12.5937C4.64583 12.684 4.6875 12.7916 4.6875 12.9166V15.0416C4.6875 15.1111 4.71528 15.1736 4.77083 15.2291C4.82639 15.2847 4.88889 15.3125 4.95833 15.3125H15.0417C15.1111 15.3125 15.1736 15.2847 15.2292 15.2291C15.2847 15.1736 15.3125 15.1111 15.3125 15.0416V12.9166C15.3125 12.7916 15.3576 12.684 15.4479 12.5937C15.5382 12.5035 15.6458 12.4583 15.7708 12.4583C15.9097 12.4583 16.0243 12.5035 16.1146 12.5937C16.2049 12.684 16.25 12.7916 16.25 12.9166V15.0416C16.25 15.375 16.1319 15.6597 15.8958 15.8958C15.6597 16.1319 15.375 16.25 15.0417 16.25H4.95833Z" fill="#465671"/>
</svg>
