<svg width="16" height="17" viewBox="0 0 16 17" fill="none" xmlns="http://www.w3.org/2000/svg">
<path d="M8.00033 10.7292C7.79199 10.7292 7.61838 10.6562 7.47949 10.5104C7.3406 10.3646 7.27116 10.1944 7.27116 9.99999C7.27116 9.79166 7.3406 9.61457 7.47949 9.46874C7.61838 9.32291 7.79199 9.24999 8.00033 9.24999C8.20866 9.24999 8.38227 9.32291 8.52116 9.46874C8.66005 9.61457 8.72949 9.79166 8.72949 9.99999C8.72949 10.1944 8.66005 10.3646 8.52116 10.5104C8.38227 10.6562 8.20866 10.7292 8.00033 10.7292ZM4.66699 10.7292C4.45866 10.7292 4.28505 10.6562 4.14616 10.5104C4.00727 10.3646 3.93783 10.1944 3.93783 9.99999C3.93783 9.79166 4.00727 9.61457 4.14616 9.46874C4.28505 9.32291 4.45866 9.24999 4.66699 9.24999C4.87533 9.24999 5.04894 9.32291 5.18783 9.46874C5.32671 9.61457 5.39616 9.79166 5.39616 9.99999C5.39616 10.1944 5.32671 10.3646 5.18783 10.5104C5.04894 10.6562 4.87533 10.7292 4.66699 10.7292ZM11.3337 10.7292C11.1253 10.7292 10.9517 10.6562 10.8128 10.5104C10.6739 10.3646 10.6045 10.1944 10.6045 9.99999C10.6045 9.79166 10.6739 9.61457 10.8128 9.46874C10.9517 9.32291 11.1253 9.24999 11.3337 9.24999C11.542 9.24999 11.7156 9.32291 11.8545 9.46874C11.9934 9.61457 12.0628 9.79166 12.0628 9.99999C12.0628 10.1944 11.9934 10.3646 11.8545 10.5104C11.7156 10.6562 11.542 10.7292 11.3337 10.7292ZM8.00033 14C7.79199 14 7.61838 13.9271 7.47949 13.7812C7.3406 13.6354 7.27116 13.4653 7.27116 13.2708C7.27116 13.0625 7.3406 12.8854 7.47949 12.7396C7.61838 12.5937 7.79199 12.5208 8.00033 12.5208C8.20866 12.5208 8.38227 12.5937 8.52116 12.7396C8.66005 12.8854 8.72949 13.0625 8.72949 13.2708C8.72949 13.4653 8.66005 13.6354 8.52116 13.7812C8.38227 13.9271 8.20866 14 8.00033 14ZM4.66699 14C4.45866 14 4.28505 13.9271 4.14616 13.7812C4.00727 13.6354 3.93783 13.4653 3.93783 13.2708C3.93783 13.0625 4.00727 12.8854 4.14616 12.7396C4.28505 12.5937 4.45866 12.5208 4.66699 12.5208C4.87533 12.5208 5.04894 12.5937 5.18783 12.7396C5.32671 12.8854 5.39616 13.0625 5.39616 13.2708C5.39616 13.4653 5.32671 13.6354 5.18783 13.7812C5.04894 13.9271 4.87533 14 4.66699 14ZM11.3337 14C11.1253 14 10.9517 13.9271 10.8128 13.7812C10.6739 13.6354 10.6045 13.4653 10.6045 13.2708C10.6045 13.0625 10.6739 12.8854 10.8128 12.7396C10.9517 12.5937 11.1253 12.5208 11.3337 12.5208C11.542 12.5208 11.7156 12.5937 11.8545 12.7396C11.9934 12.8854 12.0628 13.0625 12.0628 13.2708C12.0628 13.4653 11.9934 13.6354 11.8545 13.7812C11.7156 13.9271 11.542 14 11.3337 14ZM2.12533 16.9167C1.79199 16.9167 1.50727 16.7986 1.27116 16.5625C1.03505 16.3264 0.916992 16.0417 0.916992 15.7083V3.64582C0.916992 3.32638 1.03505 3.04513 1.27116 2.80207C1.50727 2.55902 1.79199 2.43749 2.12533 2.43749H3.66699V1.49999C3.66699 1.3611 3.7156 1.23957 3.81283 1.13541C3.91005 1.03124 4.0281 0.979156 4.16699 0.979156C4.31977 0.979156 4.44824 1.03124 4.55241 1.13541C4.65658 1.23957 4.70866 1.3611 4.70866 1.49999V2.43749H11.3337V1.49999C11.3337 1.34721 11.3788 1.22221 11.4691 1.12499C11.5594 1.02777 11.6809 0.979156 11.8337 0.979156C11.9725 0.979156 12.0941 1.02777 12.1982 1.12499C12.3024 1.22221 12.3545 1.34721 12.3545 1.49999V2.43749H13.8753C14.2087 2.43749 14.4934 2.55902 14.7295 2.80207C14.9656 3.04513 15.0837 3.32638 15.0837 3.64582V15.7083C15.0837 16.0417 14.9656 16.3264 14.7295 16.5625C14.4934 16.7986 14.2087 16.9167 13.8753 16.9167H2.12533ZM2.12533 15.9792H13.8753C13.9587 15.9792 14.0246 15.9549 14.0732 15.9062C14.1219 15.8576 14.1462 15.7917 14.1462 15.7083V7.43749H1.85449V15.7083C1.85449 15.7917 1.8788 15.8576 1.92741 15.9062C1.97602 15.9549 2.04199 15.9792 2.12533 15.9792Z" fill="#465671"/>
</svg>
