<svg width="30" height="38" viewBox="0 0 30 38" fill="none" xmlns="http://www.w3.org/2000/svg">
<path d="M13.95 21.6V30.55C13.95 30.8833 14.0583 31.1583 14.275 31.375C14.4917 31.5917 14.7667 31.7 15.1 31.7C15.4333 31.7 15.7 31.5917 15.9 31.375C16.1 31.1583 16.2 30.8833 16.2 30.55V21.6L19.75 25.15C19.85 25.2167 20.0417 25.1917 20.325 25.075C20.6083 24.9583 20.8833 24.85 21.15 24.75C21.4167 24.65 21.6 24.6083 21.7 24.625C21.8 24.6417 21.6833 24.8167 21.35 25.15C21.5833 24.9167 21.6917 24.65 21.675 24.35C21.6583 24.05 21.55 23.7833 21.35 23.55L16 18.35C15.8667 18.1833 15.7167 18.0667 15.55 18C15.3833 17.9333 15.2 17.9 15 17.9C14.8 17.9 14.6167 17.9333 14.45 18C14.2833 18.0667 14.1333 18.1833 14 18.35L8.7 23.65C8.5 23.85 8.39167 24.1083 8.375 24.425C8.35833 24.7417 8.46667 25.0167 8.7 25.25C8.93333 25.45 9.2 25.55 9.5 25.55C9.8 25.55 10.0667 25.45 10.3 25.25L13.95 21.6ZM2.9 38C2.1 38 1.41667 37.7167 0.85 37.15C0.283334 36.5833 0 35.9 0 35.1V2.9C0 2.1 0.283334 1.41667 0.85 0.85C1.41667 0.283333 2.1 0 2.9 0H19.05C19.45 0 19.8333 0.0833333 20.2 0.25C20.5667 0.416667 20.8833 0.616667 21.15 0.85L29.15 8.85C29.3833 9.11667 29.5833 9.43333 29.75 9.8C29.9167 10.1667 30 10.55 30 10.95V35.1C30 35.9 29.7167 36.5833 29.15 37.15C28.5833 37.7167 27.9 38 27.1 38H2.9ZM19.15 9.3C19.15 9.73333 19.2833 10.0833 19.55 10.35C19.8167 10.6167 20.15 10.75 20.55 10.75H27.75L19.15 2.25V9.3Z" fill="#848EA0"/>
</svg>
